<svg width="692" height="173" viewBox="0 0 692 173" fill="none" xmlns="http://www.w3.org/2000/svg">
<path d="M8.8 72C7 72 5.6 71.5333 4.6 70.6C3.66667 69.6 3.2 68.2 3.2 66.4V7.1C3.2 5.29999 3.66667 3.93333 4.6 2.99999C5.6 2 7 1.5 8.8 1.5H45.3C46.7 1.5 47.7667 1.86666 48.5 2.6C49.2333 3.26667 49.6 4.26666 49.6 5.6C49.6 7 49.2333 8.06667 48.5 8.8C47.7667 9.53333 46.7 9.89999 45.3 9.89999H13.2V32H43.1C44.5667 32 45.6333 32.3667 46.3 33.1C47.0333 33.8333 47.4 34.8667 47.4 36.2C47.4 37.6 47.0333 38.6667 46.3 39.4C45.6333 40.0667 44.5667 40.4 43.1 40.4H13.2V63.6H45.3C46.7 63.6 47.7667 63.9667 48.5 64.7C49.2333 65.4333 49.6 66.4667 49.6 67.8C49.6 69.2 49.2333 70.2667 48.5 71C47.7667 71.6667 46.7 72 45.3 72H8.8ZM62.1008 72.7C60.7674 72.7 59.6674 72.3667 58.8008 71.7C57.9341 70.9667 57.4341 70.0667 57.3008 69C57.1674 67.8667 57.5341 66.7333 58.4008 65.6L82.0008 33.9V38.1L59.7008 8.09999C58.8341 6.9 58.4341 5.73333 58.5008 4.6C58.6341 3.46666 59.1341 2.56666 60.0008 1.9C60.8674 1.16666 61.9341 0.799999 63.2008 0.799999C64.2674 0.799999 65.2008 1.06666 66.0008 1.59999C66.8674 2.06666 67.7341 2.9 68.6008 4.1L88.0008 30.7H84.8008L104.001 4.1C104.867 2.9 105.701 2.06666 106.501 1.59999C107.367 1.06666 108.367 0.799999 109.501 0.799999C110.834 0.799999 111.934 1.16666 112.801 1.9C113.667 2.56666 114.134 3.46666 114.201 4.6C114.334 5.66666 113.934 6.83333 113.001 8.09999L90.7008 38.1V33.9L114.201 65.6C115.067 66.7333 115.434 67.8667 115.301 69C115.234 70.0667 114.767 70.9667 113.901 71.7C113.034 72.3667 111.901 72.7 110.501 72.7C109.501 72.7 108.567 72.4333 107.701 71.9C106.834 71.3667 105.934 70.5333 105.001 69.4L84.4008 41.2H88.2008L67.7008 69.4C66.8341 70.5333 65.9341 71.3667 65.0008 71.9C64.1341 72.4333 63.1674 72.7 62.1008 72.7ZM132.716 72.7C131.05 72.7 129.75 72.2333 128.816 71.3C127.95 70.3667 127.516 69.0667 127.516 67.4V6.8C127.516 5.06666 127.983 3.76666 128.916 2.9C129.85 1.96666 131.15 1.5 132.816 1.5H156.716C164.316 1.5 170.183 3.4 174.316 7.2C178.45 10.9333 180.516 16.2 180.516 23C180.516 29.8667 178.45 35.2 174.316 39C170.183 42.7333 164.316 44.6 156.716 44.6H137.916V67.4C137.916 69.0667 137.483 70.3667 136.616 71.3C135.75 72.2333 134.45 72.7 132.716 72.7ZM137.916 36.3H155.216C160.216 36.3 163.983 35.2 166.516 33C169.116 30.7333 170.416 27.4 170.416 23C170.416 18.6667 169.116 15.4 166.516 13.2C163.983 10.9333 160.216 9.8 155.216 9.8H137.916V36.3ZM196.877 72.7C195.21 72.7 193.91 72.2333 192.977 71.3C192.11 70.3667 191.677 69.0667 191.677 67.4V6.8C191.677 5.06666 192.143 3.76666 193.077 2.9C194.01 1.96666 195.31 1.5 196.977 1.5H220.877C228.477 1.5 234.343 3.3 238.477 6.9C242.61 10.5 244.677 15.6 244.677 22.2C244.677 26.4667 243.743 30.1333 241.877 33.2C240.01 36.2667 237.277 38.6 233.677 40.2C230.143 41.8 225.877 42.6 220.877 42.6L221.777 41.2H224.377C227.043 41.2 229.343 41.8667 231.277 43.2C233.277 44.5333 235.077 46.6667 236.677 49.6L245.277 65.6C245.943 66.8 246.243 67.9667 246.177 69.1C246.177 70.1667 245.777 71.0333 244.977 71.7C244.243 72.3667 243.177 72.7 241.777 72.7C240.31 72.7 239.11 72.4 238.177 71.8C237.31 71.1333 236.51 70.1667 235.777 68.9L225.277 49.5C223.877 46.9 222.277 45.1667 220.477 44.3C218.677 43.3667 216.31 42.9 213.377 42.9H202.077V67.4C202.077 69.0667 201.643 70.3667 200.777 71.3C199.91 72.2333 198.61 72.7 196.877 72.7ZM202.077 35.1H219.177C224.243 35.1 228.077 34.0333 230.677 31.9C233.277 29.7667 234.577 26.6 234.577 22.4C234.577 18.2667 233.277 15.1333 230.677 13C228.077 10.8667 224.243 9.8 219.177 9.8H202.077V35.1ZM264.952 72C263.152 72 261.752 71.5333 260.752 70.6C259.819 69.6 259.352 68.2 259.352 66.4V7.1C259.352 5.29999 259.819 3.93333 260.752 2.99999C261.752 2 263.152 1.5 264.952 1.5H301.452C302.852 1.5 303.919 1.86666 304.652 2.6C305.386 3.26667 305.752 4.26666 305.752 5.6C305.752 7 305.386 8.06667 304.652 8.8C303.919 9.53333 302.852 9.89999 301.452 9.89999H269.352V32H299.252C300.719 32 301.786 32.3667 302.452 33.1C303.186 33.8333 303.552 34.8667 303.552 36.2C303.552 37.6 303.186 38.6667 302.452 39.4C301.786 40.0667 300.719 40.4 299.252 40.4H269.352V63.6H301.452C302.852 63.6 303.919 63.9667 304.652 64.7C305.386 65.4333 305.752 66.4667 305.752 67.8C305.752 69.2 305.386 70.2667 304.652 71C303.919 71.6667 302.852 72 301.452 72H264.952ZM340.763 72.9C337.696 72.9 334.696 72.6667 331.763 72.2C328.829 71.7333 326.063 71.0333 323.463 70.1C320.863 69.1 318.529 67.9 316.463 66.5C315.463 65.7667 314.763 64.9333 314.363 64C314.029 63.0667 313.929 62.1667 314.063 61.3C314.263 60.3667 314.663 59.5667 315.263 58.9C315.863 58.2333 316.596 57.8333 317.463 57.7C318.329 57.5 319.296 57.7667 320.363 58.5C323.363 60.4333 326.529 61.8667 329.863 62.8C333.196 63.6667 336.829 64.1 340.763 64.1C346.429 64.1 350.596 63.1 353.263 61.1C355.996 59.0333 357.363 56.3667 357.363 53.1C357.363 50.4333 356.396 48.3333 354.463 46.8C352.529 45.2 349.296 43.9333 344.763 43L334.062 40.8C327.729 39.4667 322.996 37.2667 319.863 34.2C316.796 31.1333 315.263 27 315.263 21.8C315.263 18.6667 315.896 15.8 317.163 13.2C318.496 10.6 320.329 8.36666 322.663 6.5C324.996 4.56666 327.796 3.1 331.063 2.09999C334.329 1.09999 337.896 0.599995 341.763 0.599995C345.896 0.599995 349.763 1.13333 353.363 2.2C357.029 3.26666 360.296 4.9 363.163 7.1C364.029 7.7 364.596 8.46666 364.863 9.4C365.196 10.2667 365.263 11.1333 365.063 12C364.929 12.8667 364.563 13.6 363.963 14.2C363.363 14.8 362.596 15.1667 361.663 15.3C360.729 15.3667 359.696 15.0333 358.563 14.3C355.963 12.5667 353.296 11.3333 350.563 10.6C347.896 9.8 344.929 9.4 341.663 9.4C338.396 9.4 335.529 9.9 333.063 10.9C330.663 11.9 328.796 13.3 327.463 15.1C326.196 16.9 325.563 19.0333 325.563 21.5C325.563 24.3 326.463 26.5333 328.263 28.2C330.063 29.8667 333.063 31.1333 337.263 32L347.863 34.2C354.529 35.6 359.496 37.7667 362.763 40.7C366.029 43.6333 367.663 47.5333 367.663 52.4C367.663 55.5333 367.029 58.3667 365.763 60.9C364.496 63.3667 362.696 65.5 360.363 67.3C358.029 69.1 355.196 70.5 351.863 71.5C348.596 72.4333 344.896 72.9 340.763 72.9ZM402.97 72.9C399.903 72.9 396.903 72.6667 393.97 72.2C391.036 71.7333 388.27 71.0333 385.67 70.1C383.07 69.1 380.736 67.9 378.67 66.5C377.67 65.7667 376.97 64.9333 376.57 64C376.236 63.0667 376.136 62.1667 376.27 61.3C376.47 60.3667 376.87 59.5667 377.47 58.9C378.07 58.2333 378.803 57.8333 379.67 57.7C380.536 57.5 381.503 57.7667 382.57 58.5C385.57 60.4333 388.736 61.8667 392.07 62.8C395.403 63.6667 399.036 64.1 402.97 64.1C408.636 64.1 412.803 63.1 415.47 61.1C418.203 59.0333 419.57 56.3667 419.57 53.1C419.57 50.4333 418.603 48.3333 416.67 46.8C414.736 45.2 411.503 43.9333 406.97 43L396.27 40.8C389.936 39.4667 385.203 37.2667 382.07 34.2C379.003 31.1333 377.47 27 377.47 21.8C377.47 18.6667 378.103 15.8 379.37 13.2C380.703 10.6 382.536 8.36666 384.87 6.5C387.203 4.56666 390.003 3.1 393.27 2.09999C396.536 1.09999 400.103 0.599995 403.97 0.599995C408.103 0.599995 411.97 1.13333 415.57 2.2C419.236 3.26666 422.503 4.9 425.37 7.1C426.236 7.7 426.803 8.46666 427.07 9.4C427.403 10.2667 427.47 11.1333 427.27 12C427.136 12.8667 426.77 13.6 426.17 14.2C425.57 14.8 424.803 15.1667 423.87 15.3C422.936 15.3667 421.903 15.0333 420.77 14.3C418.17 12.5667 415.503 11.3333 412.77 10.6C410.103 9.8 407.136 9.4 403.87 9.4C400.603 9.4 397.736 9.9 395.27 10.9C392.87 11.9 391.003 13.3 389.67 15.1C388.403 16.9 387.77 19.0333 387.77 21.5C387.77 24.3 388.67 26.5333 390.47 28.2C392.27 29.8667 395.27 31.1333 399.47 32L410.07 34.2C416.736 35.6 421.703 37.7667 424.97 40.7C428.236 43.6333 429.87 47.5333 429.87 52.4C429.87 55.5333 429.236 58.3667 427.97 60.9C426.703 63.3667 424.903 65.5 422.57 67.3C420.236 69.1 417.403 70.5 414.07 71.5C410.803 72.4333 407.103 72.9 402.97 72.9ZM491.744 72.7C490.277 72.7 489.077 72.3333 488.144 71.6C487.277 70.8667 486.544 69.7333 485.944 68.2L464.444 6.9C463.844 5.16666 463.944 3.73333 464.744 2.6C465.61 1.4 467.01 0.799999 468.944 0.799999C470.41 0.799999 471.544 1.13333 472.344 1.8C473.21 2.46666 473.877 3.53333 474.344 5L493.844 62.4H490.144L510.144 5.2C510.744 3.73333 511.444 2.63333 512.244 1.9C513.044 1.16666 514.11 0.799999 515.444 0.799999C516.777 0.799999 517.81 1.16666 518.544 1.9C519.344 2.63333 520.044 3.76666 520.644 5.29999L540.244 62.4H536.944L556.644 5C557.11 3.6 557.744 2.56666 558.544 1.9C559.41 1.16666 560.544 0.799999 561.944 0.799999C563.677 0.799999 564.944 1.4 565.744 2.6C566.61 3.73333 566.71 5.16666 566.044 6.9L544.444 68.3C543.844 69.7667 543.11 70.8667 542.244 71.6C541.377 72.3333 540.21 72.7 538.744 72.7C537.21 72.7 536.01 72.3333 535.144 71.6C534.277 70.8667 533.577 69.7333 533.044 68.2L514.144 14.1H516.344L497.244 68.3C496.71 69.7667 496.01 70.8667 495.144 71.6C494.344 72.3333 493.21 72.7 491.744 72.7ZM584.386 72C582.586 72 581.186 71.5333 580.186 70.6C579.253 69.6 578.786 68.2 578.786 66.4V7.1C578.786 5.29999 579.253 3.93333 580.186 2.99999C581.186 2 582.586 1.5 584.386 1.5H620.886C622.286 1.5 623.353 1.86666 624.086 2.6C624.819 3.26667 625.186 4.26666 625.186 5.6C625.186 7 624.819 8.06667 624.086 8.8C623.353 9.53333 622.286 9.89999 620.886 9.89999H588.786V32H618.686C620.153 32 621.219 32.3667 621.886 33.1C622.619 33.8333 622.986 34.8667 622.986 36.2C622.986 37.6 622.619 38.6667 621.886 39.4C621.219 40.0667 620.153 40.4 618.686 40.4H588.786V63.6H620.886C622.286 63.6 623.353 63.9667 624.086 64.7C624.819 65.4333 625.186 66.4667 625.186 67.8C625.186 69.2 624.819 70.2667 624.086 71C623.353 71.6667 622.286 72 620.886 72H584.386ZM643.273 72C641.473 72 640.073 71.5333 639.073 70.6C638.139 69.6 637.673 68.2 637.673 66.4V7.1C637.673 5.29999 638.139 3.93333 639.073 2.99999C640.073 2 641.473 1.5 643.273 1.5H667.073C671.939 1.5 676.073 2.23333 679.473 3.7C682.939 5.16666 685.573 7.26667 687.373 10C689.239 12.7333 690.173 16.0333 690.173 19.9C690.173 24.1667 688.906 27.7667 686.373 30.7C683.839 33.6333 680.406 35.6 676.073 36.6V35.1C681.006 35.7667 684.873 37.6333 687.673 40.7C690.473 43.7 691.873 47.6333 691.873 52.5C691.873 58.7667 689.806 63.6 685.673 67C681.539 70.3333 675.739 72 668.273 72H643.273ZM647.673 64H667.073C672.073 64 675.773 63.0333 678.173 61.1C680.573 59.1 681.773 56.1 681.773 52.1C681.773 48.1 680.573 45.1333 678.173 43.2C675.773 41.2667 672.073 40.3 667.073 40.3H647.673V64ZM647.673 32.3H665.473C670.273 32.3 673.906 31.3333 676.373 29.4C678.839 27.4667 680.073 24.6333 680.073 20.9C680.073 17.1667 678.839 14.3333 676.373 12.4C673.906 10.4667 670.273 9.5 665.473 9.5H647.673V32.3ZM26 172.8C22.6667 172.8 19.5 172.5 16.5 171.9C13.5 171.3 10.7 170.433 8.1 169.3C5.56667 168.167 3.26667 166.767 1.2 165.1C0.733334 164.7 0.4 164.267 0.2 163.8C0.0666668 163.333 0.0666668 162.9 0.2 162.5C0.4 162.033 0.666667 161.667 1 161.4C1.33333 161.133 1.73333 161 2.2 161C2.66667 161 3.13333 161.2 3.6 161.6C6.73333 164.067 10.0333 165.867 13.5 167C17.0333 168.133 21.2 168.7 26 168.7C32.6667 168.7 37.6667 167.367 41 164.7C44.4 162.033 46.1 158.5 46.1 154.1C46.1 150.5 44.8667 147.7 42.4 145.7C39.9333 143.633 35.9 142.033 30.3 140.9L20.4 138.9C14.1333 137.633 9.46667 135.533 6.4 132.6C3.33333 129.667 1.8 125.7 1.8 120.7C1.8 117.7 2.36667 115 3.5 112.6C4.7 110.133 6.36667 108.033 8.5 106.3C10.6333 104.5 13.1667 103.133 16.1 102.2C19.0333 101.2 22.2667 100.7 25.8 100.7C30.2 100.7 34.2333 101.367 37.9 102.7C41.5667 103.967 44.9 105.967 47.9 108.7C48.3667 109.1 48.6667 109.567 48.8 110.1C48.9333 110.567 48.9 111.033 48.7 111.5C48.5667 111.9 48.3333 112.233 48 112.5C47.7333 112.7 47.3667 112.8 46.9 112.8C46.4333 112.8 45.9667 112.567 45.5 112.1C42.6333 109.567 39.6 107.733 36.4 106.6C33.2 105.4 29.6667 104.8 25.8 104.8C21.8667 104.8 18.4333 105.467 15.5 106.8C12.5667 108.067 10.2667 109.9 8.6 112.3C7 114.7 6.2 117.5 6.2 120.7C6.2 124.567 7.33333 127.633 9.6 129.9C11.8667 132.1 15.5333 133.7 20.6 134.7L30.5 136.7C37.3 138.1 42.3333 140.167 45.6 142.9C48.8667 145.567 50.5 149.267 50.5 154C50.5 156.8 49.9333 159.367 48.8 161.7C47.6667 163.967 46.0333 165.933 43.9 167.6C41.8333 169.267 39.2667 170.567 36.2 171.5C33.2 172.367 29.8 172.8 26 172.8ZM82.2961 172.6C81.6294 172.6 81.0961 172.4 80.6961 172C80.3628 171.6 80.1961 171.033 80.1961 170.3V135.3L81.2961 139.2L55.2961 104.1C54.8961 103.5 54.6961 102.967 54.6961 102.5C54.6961 101.967 54.8628 101.567 55.1961 101.3C55.5294 101.033 55.9294 100.9 56.3961 100.9C56.9294 100.9 57.3961 101 57.7961 101.2C58.1961 101.4 58.5628 101.767 58.8961 102.3L83.1961 135.2H81.6961L105.996 102.3C106.329 101.767 106.663 101.4 106.996 101.2C107.396 101 107.863 100.9 108.396 100.9C108.863 100.9 109.229 101.033 109.496 101.3C109.829 101.567 109.996 101.967 109.996 102.5C110.063 102.967 109.863 103.5 109.396 104.1L83.3961 139.2L84.3961 135.3V170.3C84.3961 171.833 83.6961 172.6 82.2961 172.6ZM139.672 172.8C136.339 172.8 133.172 172.5 130.172 171.9C127.172 171.3 124.372 170.433 121.772 169.3C119.239 168.167 116.939 166.767 114.872 165.1C114.405 164.7 114.072 164.267 113.872 163.8C113.739 163.333 113.739 162.9 113.872 162.5C114.072 162.033 114.339 161.667 114.672 161.4C115.005 161.133 115.405 161 115.872 161C116.339 161 116.805 161.2 117.272 161.6C120.405 164.067 123.705 165.867 127.172 167C130.705 168.133 134.872 168.7 139.672 168.7C146.339 168.7 151.339 167.367 154.672 164.7C158.072 162.033 159.772 158.5 159.772 154.1C159.772 150.5 158.539 147.7 156.072 145.7C153.605 143.633 149.572 142.033 143.972 140.9L134.072 138.9C127.805 137.633 123.139 135.533 120.072 132.6C117.005 129.667 115.472 125.7 115.472 120.7C115.472 117.7 116.039 115 117.172 112.6C118.372 110.133 120.039 108.033 122.172 106.3C124.305 104.5 126.839 103.133 129.772 102.2C132.705 101.2 135.939 100.7 139.472 100.7C143.872 100.7 147.905 101.367 151.572 102.7C155.239 103.967 158.572 105.967 161.572 108.7C162.039 109.1 162.339 109.567 162.472 110.1C162.605 110.567 162.572 111.033 162.372 111.5C162.239 111.9 162.005 112.233 161.672 112.5C161.405 112.7 161.039 112.8 160.572 112.8C160.105 112.8 159.639 112.567 159.172 112.1C156.305 109.567 153.272 107.733 150.072 106.6C146.872 105.4 143.339 104.8 139.472 104.8C135.539 104.8 132.105 105.467 129.172 106.8C126.239 108.067 123.939 109.9 122.272 112.3C120.672 114.7 119.872 117.5 119.872 120.7C119.872 124.567 121.005 127.633 123.272 129.9C125.539 132.1 129.205 133.7 134.272 134.7L144.172 136.7C150.972 138.1 156.005 140.167 159.272 142.9C162.539 145.567 164.172 149.267 164.172 154C164.172 156.8 163.605 159.367 162.472 161.7C161.339 163.967 159.705 165.933 157.572 167.6C155.505 169.267 152.939 170.567 149.872 171.5C146.872 172.367 143.472 172.8 139.672 172.8ZM196.468 172.6C195.801 172.6 195.268 172.4 194.868 172C194.535 171.6 194.368 171.067 194.368 170.4V105.4H169.068C168.401 105.4 167.868 105.233 167.468 104.9C167.068 104.5 166.868 104 166.868 103.4C166.868 102.8 167.068 102.333 167.468 102C167.868 101.667 168.401 101.5 169.068 101.5H223.868C224.601 101.5 225.135 101.667 225.468 102C225.868 102.333 226.068 102.8 226.068 103.4C226.068 104.067 225.868 104.567 225.468 104.9C225.135 105.233 224.601 105.4 223.868 105.4H198.568V170.4C198.568 171.067 198.401 171.6 198.068 172C197.735 172.4 197.201 172.6 196.468 172.6ZM237.862 172C237.062 172 236.428 171.8 235.962 171.4C235.562 170.933 235.362 170.3 235.362 169.5V104C235.362 103.2 235.562 102.6 235.962 102.2C236.428 101.733 237.062 101.5 237.862 101.5H276.262C276.928 101.5 277.428 101.667 277.762 102C278.162 102.333 278.362 102.8 278.362 103.4C278.362 104.067 278.162 104.567 277.762 104.9C277.428 105.233 276.928 105.4 276.262 105.4H239.562V134.3H274.262C274.928 134.3 275.428 134.467 275.762 134.8C276.162 135.133 276.362 135.6 276.362 136.2C276.362 136.867 276.162 137.367 275.762 137.7C275.428 138.033 274.928 138.2 274.262 138.2H239.562V168.1H276.262C276.928 168.1 277.428 168.267 277.762 168.6C278.162 168.933 278.362 169.4 278.362 170C278.362 170.667 278.162 171.167 277.762 171.5C277.428 171.833 276.928 172 276.262 172H237.862ZM294.593 172.6C293.993 172.6 293.493 172.4 293.093 172C292.76 171.6 292.593 171.067 292.593 170.4V103.1C292.593 102.367 292.76 101.833 293.093 101.5C293.426 101.1 293.86 100.9 294.393 100.9C294.993 100.9 295.46 101.033 295.793 101.3C296.126 101.567 296.426 101.967 296.693 102.5L326.493 159.3H323.693L353.293 102.5C353.626 101.967 353.926 101.567 354.193 101.3C354.526 101.033 354.993 100.9 355.593 100.9C356.126 100.9 356.56 101.1 356.893 101.5C357.226 101.833 357.393 102.367 357.393 103.1V170.4C357.393 171.067 357.226 171.6 356.893 172C356.56 172.4 356.093 172.6 355.493 172.6C354.826 172.6 354.326 172.4 353.993 172C353.66 171.6 353.493 171.067 353.493 170.4V105.5H355.893L327.393 160C327.126 160.533 326.826 160.933 326.493 161.2C326.226 161.467 325.793 161.6 325.193 161.6C324.593 161.6 324.126 161.467 323.793 161.2C323.46 160.867 323.16 160.467 322.893 160L293.993 105.4H296.493V170.4C296.493 171.067 296.326 171.6 295.993 172C295.66 172.4 295.193 172.6 294.593 172.6ZM398.168 172.8C394.835 172.8 391.668 172.5 388.668 171.9C385.668 171.3 382.868 170.433 380.268 169.3C377.735 168.167 375.435 166.767 373.368 165.1C372.901 164.7 372.568 164.267 372.368 163.8C372.235 163.333 372.235 162.9 372.368 162.5C372.568 162.033 372.835 161.667 373.168 161.4C373.501 161.133 373.901 161 374.368 161C374.835 161 375.301 161.2 375.768 161.6C378.901 164.067 382.201 165.867 385.668 167C389.201 168.133 393.368 168.7 398.168 168.7C404.835 168.7 409.835 167.367 413.168 164.7C416.568 162.033 418.268 158.5 418.268 154.1C418.268 150.5 417.035 147.7 414.568 145.7C412.101 143.633 408.068 142.033 402.468 140.9L392.568 138.9C386.301 137.633 381.635 135.533 378.568 132.6C375.501 129.667 373.968 125.7 373.968 120.7C373.968 117.7 374.535 115 375.668 112.6C376.868 110.133 378.535 108.033 380.668 106.3C382.801 104.5 385.335 103.133 388.268 102.2C391.201 101.2 394.435 100.7 397.968 100.7C402.368 100.7 406.401 101.367 410.068 102.7C413.735 103.967 417.068 105.967 420.068 108.7C420.535 109.1 420.835 109.567 420.968 110.1C421.101 110.567 421.068 111.033 420.868 111.5C420.735 111.9 420.501 112.233 420.168 112.5C419.901 112.7 419.535 112.8 419.068 112.8C418.601 112.8 418.135 112.567 417.668 112.1C414.801 109.567 411.768 107.733 408.568 106.6C405.368 105.4 401.835 104.8 397.968 104.8C394.035 104.8 390.601 105.467 387.668 106.8C384.735 108.067 382.435 109.9 380.768 112.3C379.168 114.7 378.368 117.5 378.368 120.7C378.368 124.567 379.501 127.633 381.768 129.9C384.035 132.1 387.701 133.7 392.768 134.7L402.668 136.7C409.468 138.1 414.501 140.167 417.768 142.9C421.035 145.567 422.668 149.267 422.668 154C422.668 156.8 422.101 159.367 420.968 161.7C419.835 163.967 418.201 165.933 416.068 167.6C414.001 169.267 411.435 170.567 408.368 171.5C405.368 172.367 401.968 172.8 398.168 172.8Z" fill="#225887"/>
</svg>
