<svg width="230" height="15" viewBox="0 0 230 15" fill="none" xmlns="http://www.w3.org/2000/svg">
<path d="M-1.10567e-05 14.7443V0.198869H9.11931V2.08807H2.19459V6.51989H8.64346V8.40199H2.19459V12.8551H9.20454V14.7443H-1.10567e-05ZM12.9778 0.198869L16.4579 5.88779H16.5715L20.0516 0.198869H22.5942L18.063 7.4716L22.6226 14.7443H20.0658L16.5715 9.13353H16.4579L12.9636 14.7443H10.4067L15.0445 7.4716L10.4351 0.198869H12.9778ZM24.1711 14.7443V0.198869H29.3557C30.4874 0.198869 31.4249 0.404835 32.1682 0.816766C32.9116 1.2287 33.468 1.79215 33.8373 2.50711C34.2066 3.21733 34.3913 4.01752 34.3913 4.90768C34.3913 5.80256 34.2042 6.60749 33.8302 7.32245C33.4609 8.03268 32.9021 8.59612 32.154 9.01279C31.4107 9.42472 30.4755 9.63069 29.3486 9.63069H25.7833V7.76989H29.1498C29.8647 7.76989 30.4448 7.64679 30.8898 7.40057C31.3349 7.14963 31.6616 6.80872 31.8699 6.37785C32.0783 5.94697 32.1824 5.45692 32.1824 4.90768C32.1824 4.35843 32.0783 3.87074 31.8699 3.44461C31.6616 3.01847 31.3325 2.68466 30.8827 2.44319C30.4377 2.20171 29.8505 2.08097 29.1214 2.08097H26.3657V14.7443H24.1711ZM36.3641 14.7443V0.198869H41.5487C42.6756 0.198869 43.6107 0.392998 44.3541 0.781255C45.1022 1.16951 45.6609 1.70692 46.0302 2.39347C46.3996 3.07529 46.5842 3.86364 46.5842 4.75853C46.5842 5.64868 46.3972 6.4323 46.0231 7.10938C45.6538 7.78173 45.0951 8.30493 44.347 8.67898C43.6036 9.05304 42.6685 9.24006 41.5416 9.24006H37.6141V7.35086H41.3427C42.053 7.35086 42.6306 7.24906 43.0757 7.04546C43.5255 6.84186 43.8546 6.54593 44.0629 6.15768C44.2712 5.76942 44.3754 5.30304 44.3754 4.75853C44.3754 4.20929 44.2689 3.73343 44.0558 3.33097C43.8475 2.92851 43.5184 2.62074 43.0686 2.40768C42.6235 2.18987 42.0388 2.08097 41.3143 2.08097H38.5587V14.7443H36.3641ZM43.5445 8.18182L47.1382 14.7443H44.6382L41.1155 8.18182H43.5445ZM48.6547 14.7443V0.198869H57.774V2.08807H50.8493V6.51989H57.2981V8.40199H50.8493V12.8551H57.8592V14.7443H48.6547ZM68.0387 4.01989C67.9629 3.34754 67.6504 2.82671 67.1012 2.45739C66.552 2.08334 65.8607 1.89631 65.0273 1.89631C64.4307 1.89631 63.9146 1.99101 63.479 2.1804C63.0434 2.36506 62.7049 2.62074 62.4634 2.94745C62.2267 3.26942 62.1083 3.63637 62.1083 4.0483C62.1083 4.39394 62.1888 4.69224 62.3498 4.94319C62.5155 5.19413 62.7309 5.40483 62.9961 5.57529C63.266 5.74101 63.5548 5.88069 63.8626 5.99432C64.1703 6.10322 64.4663 6.19319 64.7503 6.26421L66.1708 6.63353C66.6348 6.74716 67.1107 6.90105 67.5984 7.09518C68.086 7.2893 68.5382 7.54499 68.9549 7.86222C69.3716 8.17946 69.7077 8.57245 69.9634 9.0412C70.2238 9.50995 70.354 10.071 70.354 10.7244C70.354 11.5483 70.141 12.2798 69.7148 12.919C69.2934 13.5582 68.6803 14.0625 67.8753 14.4318C67.0752 14.8011 66.1069 14.9858 64.9705 14.9858C63.8815 14.9858 62.9393 14.813 62.1438 14.4673C61.3484 14.1217 60.7257 13.6316 60.2759 12.9972C59.8261 12.358 59.5775 11.6004 59.5302 10.7244H61.7319C61.7745 11.25 61.9449 11.688 62.2432 12.0384C62.5463 12.384 62.9322 12.6421 63.4009 12.8125C63.8744 12.9782 64.3929 13.0611 64.9563 13.0611C65.5766 13.0611 66.1282 12.964 66.6111 12.7699C67.0988 12.571 67.4824 12.2964 67.7617 11.946C68.0411 11.5909 68.1807 11.1766 68.1807 10.7031C68.1807 10.2723 68.0576 9.91951 67.8114 9.64489C67.5699 9.37027 67.2409 9.143 66.8242 8.96307C66.4123 8.78315 65.9459 8.62453 65.4251 8.48722L63.7063 8.01847C62.5415 7.70124 61.6182 7.23485 60.9364 6.61932C60.2593 6.00379 59.9208 5.1894 59.9208 4.17614C59.9208 3.33807 60.1481 2.60654 60.6026 1.98154C61.0572 1.35654 61.6727 0.871217 62.4492 0.525574C63.2257 0.175195 64.1017 5.00679e-06 65.077 5.00679e-06C66.0619 5.00679e-06 66.9307 0.172827 67.6836 0.518471C68.4412 0.864115 69.0377 1.33997 69.4734 1.94603C69.909 2.54735 70.1362 3.23864 70.1552 4.01989H68.0387ZM80.3098 4.01989C80.234 3.34754 79.9215 2.82671 79.3723 2.45739C78.823 2.08334 78.1318 1.89631 77.2984 1.89631C76.7018 1.89631 76.1857 1.99101 75.7501 2.1804C75.3145 2.36506 74.976 2.62074 74.7345 2.94745C74.4978 3.26942 74.3794 3.63637 74.3794 4.0483C74.3794 4.39394 74.4599 4.69224 74.6209 4.94319C74.7866 5.19413 75.002 5.40483 75.2672 5.57529C75.5371 5.74101 75.8259 5.88069 76.1337 5.99432C76.4414 6.10322 76.7373 6.19319 77.0214 6.26421L78.4419 6.63353C78.9059 6.74716 79.3818 6.90105 79.8695 7.09518C80.3571 7.2893 80.8093 7.54499 81.226 7.86222C81.6427 8.17946 81.9788 8.57245 82.2345 9.0412C82.4949 9.50995 82.6251 10.071 82.6251 10.7244C82.6251 11.5483 82.4121 12.2798 81.9859 12.919C81.5645 13.5582 80.9514 14.0625 80.1464 14.4318C79.3463 14.8011 78.378 14.9858 77.2416 14.9858C76.1526 14.9858 75.2104 14.813 74.4149 14.4673C73.6195 14.1217 72.9968 13.6316 72.547 12.9972C72.0972 12.358 71.8486 11.6004 71.8013 10.7244H74.003C74.0456 11.25 74.216 11.688 74.5143 12.0384C74.8174 12.384 75.2033 12.6421 75.672 12.8125C76.1455 12.9782 76.664 13.0611 77.2274 13.0611C77.8477 13.0611 78.3993 12.964 78.8822 12.7699C79.3699 12.571 79.7534 12.2964 80.0328 11.946C80.3122 11.5909 80.4518 11.1766 80.4518 10.7031C80.4518 10.2723 80.3287 9.91951 80.0825 9.64489C79.841 9.37027 79.512 9.143 79.0953 8.96307C78.6834 8.78315 78.217 8.62453 77.6962 8.48722L75.9774 8.01847C74.8126 7.70124 73.8893 7.23485 73.2075 6.61932C72.5304 6.00379 72.1919 5.1894 72.1919 4.17614C72.1919 3.33807 72.4192 2.60654 72.8737 1.98154C73.3283 1.35654 73.9438 0.871217 74.7203 0.525574C75.4968 0.175195 76.3728 5.00679e-06 77.3481 5.00679e-06C78.333 5.00679e-06 79.2018 0.172827 79.9547 0.518471C80.7123 0.864115 81.3088 1.33997 81.7445 1.94603C82.1801 2.54735 82.4073 3.23864 82.4263 4.01989H80.3098ZM89.6957 14.7443H88.3037L93.5949 0.198869H95.0153L100.307 14.7443H98.9145L94.3548 1.92472H94.2554L89.6957 14.7443ZM90.6971 9.16904H97.9131V10.3622H90.6971V9.16904ZM102.199 14.7443V0.198869H106.894C107.926 0.198869 108.788 0.397732 109.479 0.79546C110.175 1.18845 110.698 1.72349 111.049 2.40057C111.404 3.07766 111.582 3.83997 111.582 4.68751C111.582 5.53504 111.406 6.29972 111.056 6.98154C110.706 7.65862 110.185 8.19603 109.493 8.59376C108.802 8.98675 107.943 9.18324 106.915 9.18324H103.222V7.99006H106.88C107.642 7.99006 108.274 7.84802 108.776 7.56393C109.278 7.2751 109.652 6.88211 109.898 6.38495C110.149 5.88779 110.275 5.32197 110.275 4.68751C110.275 4.05304 110.149 3.48722 109.898 2.99006C109.652 2.4929 109.276 2.10228 108.769 1.81819C108.267 1.5341 107.63 1.39205 106.859 1.39205H103.528V14.7443H102.199ZM114.099 14.7443V0.198869H118.794C119.826 0.198869 120.688 0.397732 121.379 0.79546C122.075 1.18845 122.598 1.72349 122.949 2.40057C123.304 3.07766 123.482 3.83997 123.482 4.68751C123.482 5.53504 123.306 6.29972 122.956 6.98154C122.606 7.65862 122.085 8.19603 121.393 8.59376C120.702 8.98675 119.843 9.18324 118.815 9.18324H115.122V7.99006H118.78C119.542 7.99006 120.174 7.84802 120.676 7.56393C121.178 7.2751 121.552 6.88211 121.798 6.38495C122.049 5.88779 122.175 5.32197 122.175 4.68751C122.175 4.05304 122.049 3.48722 121.798 2.99006C121.552 2.4929 121.176 2.10228 120.669 1.81819C120.167 1.5341 119.53 1.39205 118.759 1.39205H115.428V14.7443H114.099ZM128.528 14.7443L124.543 0.198869H125.893L129.188 12.706H129.302L132.597 0.198869H134.132L137.427 12.706H137.541L140.836 0.198869H142.193L138.208 14.7443H136.788L133.414 2.40768H133.322L129.948 14.7443H128.528ZM143.993 14.7443V0.198869H148.688C149.72 0.198869 150.582 0.385895 151.273 0.759949C151.969 1.12927 152.492 1.643 152.843 2.30114C153.198 2.95455 153.375 3.70502 153.375 4.55256C153.375 5.4001 153.198 6.14821 152.843 6.79688C152.492 7.44555 151.971 7.95218 151.28 8.31677C150.589 8.68135 149.732 8.86364 148.709 8.86364H144.711V7.64915H148.674C149.431 7.64915 150.061 7.52368 150.563 7.27273C151.069 7.02179 151.446 6.6643 151.692 6.20029C151.943 5.73627 152.068 5.18703 152.068 4.55256C152.068 3.91809 151.943 3.36411 151.692 2.89063C151.441 2.41241 151.062 2.04309 150.556 1.78268C150.054 1.52226 149.419 1.39205 148.652 1.39205H145.321V14.7443H143.993ZM150.407 8.18182L153.986 14.7443H152.452L148.908 8.18182H150.407ZM157.338 0.198869V14.7443H156.01V0.198869H157.338ZM159.725 1.39205V0.198869H170.272V1.39205H165.662V14.7443H164.334V1.39205H159.725ZM172.662 14.7443V0.198869H181.099V1.39205H173.99V6.8679H180.652V8.06108H173.99V13.5511H181.241V14.7443H172.662ZM200.377 4.92898H198.161C198.076 4.4555 197.917 4.03883 197.685 3.67898C197.453 3.31913 197.169 3.01374 196.833 2.76279C196.497 2.51184 196.12 2.32245 195.704 2.19461C195.292 2.06677 194.854 2.00285 194.39 2.00285C193.552 2.00285 192.801 2.21355 192.138 2.63495C191.48 3.05635 190.959 3.67425 190.576 4.48864C190.197 5.30304 190.008 6.29735 190.008 7.4716C190.008 8.65531 190.197 9.65436 190.576 10.4688C190.959 11.2831 191.483 11.8987 192.146 12.3153C192.808 12.732 193.554 12.9403 194.383 12.9403C194.842 12.9403 195.278 12.8788 195.69 12.7557C196.106 12.6278 196.483 12.4408 196.819 12.1946C197.155 11.9484 197.439 11.6477 197.671 11.2926C197.908 10.9328 198.071 10.5208 198.161 10.0568L200.377 10.0639C200.259 10.7789 200.029 11.437 199.688 12.0384C199.352 12.6349 198.919 13.151 198.388 13.5867C197.863 14.0175 197.262 14.3513 196.584 14.5881C195.907 14.8248 195.169 14.9432 194.369 14.9432C193.109 14.9432 191.987 14.6449 191.002 14.0483C190.017 13.447 189.241 12.5876 188.673 11.4702C188.109 10.3528 187.827 9.01989 187.827 7.4716C187.827 5.91857 188.111 4.58571 188.68 3.47302C189.248 2.35559 190.024 1.49858 191.009 0.901994C191.994 0.300668 193.114 5.00679e-06 194.369 5.00679e-06C195.14 5.00679e-06 195.86 0.111274 196.528 0.333812C197.2 0.551615 197.804 0.873585 198.339 1.29972C198.874 1.72112 199.316 2.23722 199.667 2.84802C200.017 3.45408 200.254 4.14773 200.377 4.92898ZM202.403 0.198869H205.066L209.697 11.5057H209.868L214.498 0.198869H217.162V14.7443H215.074V4.21876H214.939L210.649 14.723H208.916L204.626 4.21165H204.491V14.7443H202.403V0.198869ZM227.686 4.01989C227.61 3.34754 227.297 2.82671 226.748 2.45739C226.199 2.08334 225.508 1.89631 224.674 1.89631C224.078 1.89631 223.562 1.99101 223.126 2.1804C222.69 2.36506 222.352 2.62074 222.11 2.94745C221.874 3.26942 221.755 3.63637 221.755 4.0483C221.755 4.39394 221.836 4.69224 221.997 4.94319C222.162 5.19413 222.378 5.40483 222.643 5.57529C222.913 5.74101 223.202 5.88069 223.509 5.99432C223.817 6.10322 224.113 6.19319 224.397 6.26421L225.818 6.63353C226.282 6.74716 226.758 6.90105 227.245 7.09518C227.733 7.2893 228.185 7.54499 228.602 7.86222C229.018 8.17946 229.355 8.57245 229.61 9.0412C229.871 9.50995 230.001 10.071 230.001 10.7244C230.001 11.5483 229.788 12.2798 229.362 12.919C228.94 13.5582 228.327 14.0625 227.522 14.4318C226.722 14.8011 225.754 14.9858 224.617 14.9858C223.528 14.9858 222.586 14.813 221.791 14.4673C220.995 14.1217 220.373 13.6316 219.923 12.9972C219.473 12.358 219.224 11.6004 219.177 10.7244H221.379C221.421 11.25 221.592 11.688 221.89 12.0384C222.193 12.384 222.579 12.6421 223.048 12.8125C223.521 12.9782 224.04 13.0611 224.603 13.0611C225.223 13.0611 225.775 12.964 226.258 12.7699C226.746 12.571 227.129 12.2964 227.409 11.946C227.688 11.5909 227.828 11.1766 227.828 10.7031C227.828 10.2723 227.705 9.91951 227.458 9.64489C227.217 9.37027 226.888 9.143 226.471 8.96307C226.059 8.78315 225.593 8.62453 225.072 8.48722L223.353 8.01847C222.188 7.70124 221.265 7.23485 220.583 6.61932C219.906 6.00379 219.568 5.1894 219.568 4.17614C219.568 3.33807 219.795 2.60654 220.249 1.98154C220.704 1.35654 221.32 0.871217 222.096 0.525574C222.873 0.175195 223.749 5.00679e-06 224.724 5.00679e-06C225.709 5.00679e-06 226.578 0.172827 227.33 0.518471C228.088 0.864115 228.685 1.33997 229.12 1.94603C229.556 2.54735 229.783 3.23864 229.802 4.01989H227.686Z" fill="#0046A5"/>
</svg>
