<svg width="230" height="16" viewBox="0 0 230 16" fill="none" xmlns="http://www.w3.org/2000/svg">
<path d="M1.7 15C1.38 15 1.13333 14.9133 0.96 14.74C0.786667 14.5667 0.7 14.32 0.7 14V1.9C0.7 1.58 0.786667 1.33333 0.96 1.16C1.13333 0.986666 1.38 0.899999 1.7 0.899999H9.06C9.31333 0.899999 9.50667 0.966666 9.64 1.1C9.78667 1.22 9.86 1.4 9.86 1.64C9.86 1.89333 9.78667 2.08667 9.64 2.22C9.50667 2.35333 9.31333 2.42 9.06 2.42H2.5V7.08H8.64C8.89333 7.08 9.08667 7.14667 9.22 7.28C9.35333 7.41333 9.42 7.6 9.42 7.84C9.42 8.09333 9.35333 8.28667 9.22 8.42C9.08667 8.54 8.89333 8.6 8.64 8.6H2.5V13.48H9.06C9.31333 13.48 9.50667 13.5467 9.64 13.68C9.78667 13.8 9.86 13.9867 9.86 14.24C9.86 14.4933 9.78667 14.6867 9.64 14.82C9.50667 14.94 9.31333 15 9.06 15H1.7ZM12.242 15.14C12.002 15.14 11.802 15.08 11.642 14.96C11.482 14.8267 11.3887 14.66 11.362 14.46C11.3487 14.26 11.4154 14.06 11.562 13.86L16.362 7.44V8.16L11.842 2.08C11.682 1.85333 11.6087 1.64 11.622 1.44C11.6487 1.24 11.7354 1.08 11.882 0.96C12.042 0.826666 12.2354 0.76 12.462 0.76C12.662 0.76 12.8354 0.806666 12.982 0.899999C13.142 0.979999 13.2954 1.13333 13.442 1.36L17.442 6.82H16.862L20.822 1.36C20.9687 1.13333 21.1154 0.979999 21.262 0.899999C21.422 0.806666 21.6087 0.76 21.822 0.76C22.062 0.76 22.2554 0.826666 22.402 0.96C22.562 1.08 22.6487 1.24 22.662 1.44C22.6887 1.64 22.6154 1.85333 22.442 2.08L17.922 8.16V7.44L22.702 13.86C22.8487 14.06 22.9154 14.26 22.902 14.46C22.8887 14.66 22.802 14.8267 22.642 14.96C22.482 15.08 22.2754 15.14 22.022 15.14C21.8487 15.14 21.682 15.0933 21.522 15C21.362 14.9067 21.202 14.7533 21.042 14.54L16.782 8.72H17.482L13.242 14.54C13.082 14.7533 12.922 14.9067 12.762 15C12.602 15.0933 12.4287 15.14 12.242 15.14ZM26.3075 15.14C26.0142 15.14 25.7875 15.06 25.6275 14.9C25.4675 14.7267 25.3875 14.4867 25.3875 14.18V1.84C25.3875 1.53333 25.4675 1.3 25.6275 1.14C25.8008 0.979999 26.0342 0.899999 26.3275 0.899999H31.0875C32.6075 0.899999 33.7742 1.27333 34.5875 2.02C35.4142 2.76667 35.8275 3.81333 35.8275 5.16C35.8275 6.52 35.4142 7.57333 34.5875 8.32C33.7742 9.06667 32.6075 9.44 31.0875 9.44H27.2475V14.18C27.2475 14.4867 27.1675 14.7267 27.0075 14.9C26.8608 15.06 26.6275 15.14 26.3075 15.14ZM27.2475 7.94H30.8475C31.8875 7.94 32.6675 7.70667 33.1875 7.24C33.7208 6.76 33.9875 6.06667 33.9875 5.16C33.9875 4.25333 33.7208 3.57333 33.1875 3.12C32.6675 2.65333 31.8875 2.42 30.8475 2.42H27.2475V7.94ZM39.0419 15.14C38.7485 15.14 38.5219 15.06 38.3619 14.9C38.2019 14.7267 38.1219 14.4867 38.1219 14.18V1.84C38.1219 1.53333 38.2019 1.3 38.3619 1.14C38.5352 0.979999 38.7685 0.899999 39.0619 0.899999H43.8219C45.3419 0.899999 46.5085 1.26 47.3219 1.98C48.1485 2.68667 48.5619 3.69333 48.5619 5C48.5619 5.85333 48.3752 6.58667 48.0019 7.2C47.6285 7.8 47.0885 8.26 46.3819 8.58C45.6752 8.9 44.8219 9.06 43.8219 9.06L44.0219 8.78H44.4619C44.9952 8.78 45.4552 8.91333 45.8419 9.18C46.2419 9.44667 46.5952 9.87333 46.9019 10.46L48.7419 13.84C48.8619 14.0533 48.9152 14.26 48.9019 14.46C48.8885 14.66 48.8152 14.8267 48.6819 14.96C48.5485 15.08 48.3552 15.14 48.1019 15.14C47.8352 15.14 47.6219 15.0867 47.4619 14.98C47.3019 14.86 47.1619 14.6867 47.0419 14.46L44.8819 10.5C44.5885 9.94 44.2552 9.57333 43.8819 9.4C43.5085 9.21333 43.0085 9.12 42.3819 9.12H39.9819V14.18C39.9819 14.4867 39.9019 14.7267 39.7419 14.9C39.5952 15.06 39.3619 15.14 39.0419 15.14ZM39.9819 7.68H43.5219C44.5885 7.68 45.3885 7.46 45.9219 7.02C46.4552 6.56667 46.7219 5.90667 46.7219 5.04C46.7219 4.17333 46.4552 3.52 45.9219 3.08C45.3885 2.64 44.5885 2.42 43.5219 2.42H39.9819V7.68ZM52.5789 15C52.2589 15 52.0122 14.9133 51.8389 14.74C51.6656 14.5667 51.5789 14.32 51.5789 14V1.9C51.5789 1.58 51.6656 1.33333 51.8389 1.16C52.0122 0.986666 52.2589 0.899999 52.5789 0.899999H59.9389C60.1922 0.899999 60.3856 0.966666 60.5189 1.1C60.6656 1.22 60.7389 1.4 60.7389 1.64C60.7389 1.89333 60.6656 2.08667 60.5189 2.22C60.3856 2.35333 60.1922 2.42 59.9389 2.42H53.3789V7.08H59.5189C59.7722 7.08 59.9656 7.14667 60.0989 7.28C60.2322 7.41333 60.2989 7.6 60.2989 7.84C60.2989 8.09333 60.2322 8.28667 60.0989 8.42C59.9656 8.54 59.7722 8.6 59.5189 8.6H53.3789V13.48H59.9389C60.1922 13.48 60.3856 13.5467 60.5189 13.68C60.6656 13.8 60.7389 13.9867 60.7389 14.24C60.7389 14.4933 60.6656 14.6867 60.5189 14.82C60.3856 14.94 60.1922 15 59.9389 15H52.5789ZM67.7223 15.18C67.0957 15.18 66.489 15.1267 65.9023 15.02C65.3157 14.9267 64.7623 14.78 64.2423 14.58C63.7223 14.38 63.2557 14.1333 62.8423 13.84C62.669 13.72 62.5423 13.5733 62.4623 13.4C62.3957 13.2267 62.3757 13.06 62.4023 12.9C62.4423 12.7267 62.5157 12.58 62.6223 12.46C62.7423 12.34 62.8823 12.2667 63.0423 12.24C63.2023 12.2133 63.3757 12.2667 63.5623 12.4C64.1757 12.8133 64.8157 13.1133 65.4823 13.3C66.1623 13.4867 66.909 13.58 67.7223 13.58C68.8957 13.58 69.7557 13.3667 70.3023 12.94C70.8623 12.5133 71.1423 11.9533 71.1423 11.26C71.1423 10.6867 70.9423 10.24 70.5423 9.92C70.1423 9.58667 69.469 9.32667 68.5223 9.14L66.4023 8.7C65.149 8.43333 64.209 7.99333 63.5823 7.38C62.969 6.76667 62.6623 5.94667 62.6623 4.92C62.6623 4.29333 62.789 3.72667 63.0423 3.22C63.2957 2.7 63.6557 2.25333 64.1223 1.88C64.589 1.50667 65.1357 1.22 65.7623 1.02C66.4023 0.819999 67.109 0.719999 67.8823 0.719999C68.709 0.719999 69.4823 0.833333 70.2023 1.06C70.9357 1.28667 71.5957 1.62 72.1823 2.06C72.3423 2.18 72.449 2.32667 72.5023 2.5C72.5557 2.66 72.5623 2.82 72.5223 2.98C72.4957 3.14 72.4223 3.27333 72.3023 3.38C72.1957 3.48667 72.0557 3.54667 71.8823 3.56C71.7223 3.57333 71.5423 3.51333 71.3423 3.38C70.809 3.00667 70.2623 2.74 69.7023 2.58C69.1423 2.40667 68.529 2.32 67.8623 2.32C67.1823 2.32 66.589 2.42667 66.0823 2.64C65.589 2.85333 65.2023 3.15333 64.9223 3.54C64.6557 3.91333 64.5223 4.35333 64.5223 4.86C64.5223 5.47333 64.709 5.95333 65.0823 6.3C65.4557 6.64667 66.0823 6.91333 66.9623 7.1L69.0623 7.52C70.3957 7.8 71.3823 8.23333 72.0223 8.82C72.6757 9.39333 73.0023 10.1667 73.0023 11.14C73.0023 11.7533 72.8757 12.3067 72.6223 12.8C72.3823 13.2933 72.0357 13.72 71.5823 14.08C71.129 14.4267 70.5757 14.7 69.9223 14.9C69.269 15.0867 68.5357 15.18 67.7223 15.18ZM80.0856 15.18C79.459 15.18 78.8523 15.1267 78.2656 15.02C77.679 14.9267 77.1256 14.78 76.6056 14.58C76.0856 14.38 75.619 14.1333 75.2056 13.84C75.0323 13.72 74.9056 13.5733 74.8256 13.4C74.759 13.2267 74.739 13.06 74.7656 12.9C74.8056 12.7267 74.879 12.58 74.9856 12.46C75.1056 12.34 75.2456 12.2667 75.4056 12.24C75.5656 12.2133 75.739 12.2667 75.9256 12.4C76.539 12.8133 77.179 13.1133 77.8456 13.3C78.5256 13.4867 79.2723 13.58 80.0856 13.58C81.259 13.58 82.119 13.3667 82.6656 12.94C83.2256 12.5133 83.5056 11.9533 83.5056 11.26C83.5056 10.6867 83.3056 10.24 82.9056 9.92C82.5056 9.58667 81.8323 9.32667 80.8856 9.14L78.7656 8.7C77.5123 8.43333 76.5723 7.99333 75.9456 7.38C75.3323 6.76667 75.0256 5.94667 75.0256 4.92C75.0256 4.29333 75.1523 3.72667 75.4056 3.22C75.659 2.7 76.019 2.25333 76.4856 1.88C76.9523 1.50667 77.499 1.22 78.1256 1.02C78.7656 0.819999 79.4723 0.719999 80.2456 0.719999C81.0723 0.719999 81.8456 0.833333 82.5656 1.06C83.299 1.28667 83.959 1.62 84.5456 2.06C84.7056 2.18 84.8123 2.32667 84.8656 2.5C84.919 2.66 84.9256 2.82 84.8856 2.98C84.859 3.14 84.7856 3.27333 84.6656 3.38C84.559 3.48667 84.419 3.54667 84.2456 3.56C84.0856 3.57333 83.9056 3.51333 83.7056 3.38C83.1723 3.00667 82.6256 2.74 82.0656 2.58C81.5056 2.40667 80.8923 2.32 80.2256 2.32C79.5456 2.32 78.9523 2.42667 78.4456 2.64C77.9523 2.85333 77.5656 3.15333 77.2856 3.54C77.019 3.91333 76.8856 4.35333 76.8856 4.86C76.8856 5.47333 77.0723 5.95333 77.4456 6.3C77.819 6.64667 78.4456 6.91333 79.3256 7.1L81.4256 7.52C82.759 7.8 83.7456 8.23333 84.3856 8.82C85.039 9.39333 85.3656 10.1667 85.3656 11.14C85.3656 11.7533 85.239 12.3067 84.9856 12.8C84.7456 13.2933 84.399 13.72 83.9456 14.08C83.4923 14.4267 82.939 14.7 82.2856 14.9C81.6323 15.0867 80.899 15.18 80.0856 15.18ZM97.6638 15.14C97.3971 15.14 97.1838 15.0733 97.0238 14.94C96.8638 14.8067 96.7304 14.5933 96.6237 14.3L92.2638 1.86C92.1438 1.55333 92.1571 1.29333 92.3038 1.08C92.4638 0.866666 92.7238 0.76 93.0838 0.76C93.3371 0.76 93.5371 0.82 93.6838 0.94C93.8304 1.06 93.9504 1.26 94.0438 1.54L98.0638 13.34H97.3438L101.464 1.58C101.57 1.3 101.697 1.09333 101.844 0.96C101.99 0.826666 102.184 0.76 102.424 0.76C102.677 0.76 102.87 0.826666 103.004 0.96C103.15 1.09333 103.27 1.30667 103.364 1.6L107.404 13.34H106.764L110.824 1.54C110.917 1.27333 111.037 1.08 111.184 0.96C111.33 0.826666 111.537 0.76 111.804 0.76C112.11 0.76 112.337 0.866666 112.484 1.08C112.63 1.29333 112.65 1.55333 112.544 1.86L108.144 14.32C108.05 14.6 107.924 14.8067 107.764 14.94C107.604 15.0733 107.39 15.14 107.124 15.14C106.844 15.14 106.624 15.0733 106.464 14.94C106.304 14.8067 106.17 14.5933 106.064 14.3L102.164 3.1H102.604L98.6838 14.32C98.5771 14.6 98.4438 14.8067 98.2838 14.94C98.1371 15.0733 97.9304 15.14 97.6638 15.14ZM116.114 15C115.794 15 115.547 14.9133 115.374 14.74C115.201 14.5667 115.114 14.32 115.114 14V1.9C115.114 1.58 115.201 1.33333 115.374 1.16C115.547 0.986666 115.794 0.899999 116.114 0.899999H123.474C123.727 0.899999 123.921 0.966666 124.054 1.1C124.201 1.22 124.274 1.4 124.274 1.64C124.274 1.89333 124.201 2.08667 124.054 2.22C123.921 2.35333 123.727 2.42 123.474 2.42H116.914V7.08H123.054C123.307 7.08 123.501 7.14667 123.634 7.28C123.767 7.41333 123.834 7.6 123.834 7.84C123.834 8.09333 123.767 8.28667 123.634 8.42C123.501 8.54 123.307 8.6 123.054 8.6H116.914V13.48H123.474C123.727 13.48 123.921 13.5467 124.054 13.68C124.201 13.8 124.274 13.9867 124.274 14.24C124.274 14.4933 124.201 14.6867 124.054 14.82C123.921 14.94 123.727 15 123.474 15H116.114ZM127.833 15C127.513 15 127.266 14.9133 127.093 14.74C126.919 14.5667 126.833 14.32 126.833 14V1.9C126.833 1.58 126.919 1.33333 127.093 1.16C127.266 0.986666 127.513 0.899999 127.833 0.899999H132.573C133.546 0.899999 134.373 1.04667 135.053 1.34C135.746 1.63333 136.273 2.05333 136.633 2.6C136.993 3.14667 137.173 3.80667 137.173 4.58C137.173 5.44667 136.919 6.17333 136.413 6.76C135.906 7.34667 135.213 7.74 134.333 7.94V7.64C135.319 7.76 136.093 8.12667 136.653 8.74C137.226 9.34 137.513 10.1267 137.513 11.1C137.513 12.3533 137.099 13.32 136.273 14C135.459 14.6667 134.306 15 132.813 15H127.833ZM128.633 13.54H132.613C133.653 13.54 134.426 13.34 134.933 12.94C135.439 12.5267 135.693 11.9 135.693 11.06C135.693 10.22 135.439 9.6 134.933 9.2C134.426 8.8 133.653 8.6 132.613 8.6H128.633V13.54ZM128.633 7.12H132.293C133.306 7.12 134.066 6.92 134.573 6.52C135.093 6.10667 135.353 5.51333 135.353 4.74C135.353 3.96667 135.093 3.38 134.573 2.98C134.066 2.56667 133.306 2.36 132.293 2.36H128.633V7.12ZM150.122 15.16C149.455 15.16 148.822 15.1 148.222 14.98C147.622 14.86 147.062 14.6867 146.542 14.46C146.035 14.2333 145.575 13.9533 145.162 13.62C145.069 13.54 145.002 13.4533 144.962 13.36C144.935 13.2667 144.935 13.18 144.962 13.1C145.002 13.0067 145.055 12.9333 145.122 12.88C145.189 12.8267 145.269 12.8 145.362 12.8C145.455 12.8 145.549 12.84 145.642 12.92C146.269 13.4133 146.929 13.7733 147.622 14C148.329 14.2267 149.162 14.34 150.122 14.34C151.455 14.34 152.455 14.0733 153.122 13.54C153.802 13.0067 154.142 12.3 154.142 11.42C154.142 10.7 153.895 10.14 153.402 9.74C152.909 9.32667 152.102 9.00667 150.982 8.78L149.002 8.38C147.749 8.12667 146.815 7.70667 146.202 7.12C145.589 6.53333 145.282 5.74 145.282 4.74C145.282 4.14 145.395 3.6 145.622 3.12C145.862 2.62667 146.195 2.20667 146.622 1.86C147.049 1.5 147.555 1.22667 148.142 1.04C148.729 0.839999 149.375 0.739999 150.082 0.739999C150.962 0.739999 151.769 0.873332 152.502 1.14C153.235 1.39333 153.902 1.79333 154.502 2.34C154.595 2.42 154.655 2.51333 154.682 2.62C154.709 2.71333 154.702 2.80667 154.662 2.9C154.635 2.98 154.589 3.04667 154.522 3.1C154.469 3.14 154.395 3.16 154.302 3.16C154.209 3.16 154.115 3.11333 154.022 3.02C153.449 2.51333 152.842 2.14667 152.202 1.92C151.562 1.68 150.855 1.56 150.082 1.56C149.295 1.56 148.609 1.69333 148.022 1.96C147.435 2.21333 146.975 2.58 146.642 3.06C146.322 3.54 146.162 4.1 146.162 4.74C146.162 5.51333 146.389 6.12667 146.842 6.58C147.295 7.02 148.029 7.34 149.042 7.54L151.022 7.94C152.382 8.22 153.389 8.63333 154.042 9.18C154.695 9.71333 155.022 10.4533 155.022 11.4C155.022 11.96 154.909 12.4733 154.682 12.94C154.455 13.3933 154.129 13.7867 153.702 14.12C153.289 14.4533 152.775 14.7133 152.162 14.9C151.562 15.0733 150.882 15.16 150.122 15.16ZM161.381 15.12C161.248 15.12 161.141 15.08 161.061 15C160.994 14.92 160.961 14.8067 160.961 14.66V7.66L161.181 8.44L155.981 1.42C155.901 1.3 155.861 1.19333 155.861 1.1C155.861 0.993333 155.894 0.913333 155.961 0.86C156.028 0.806666 156.108 0.779999 156.201 0.779999C156.308 0.779999 156.401 0.8 156.481 0.84C156.561 0.879999 156.634 0.953333 156.701 1.06L161.561 7.64H161.261L166.121 1.06C166.188 0.953333 166.254 0.879999 166.321 0.84C166.401 0.8 166.494 0.779999 166.601 0.779999C166.694 0.779999 166.768 0.806666 166.821 0.86C166.888 0.913333 166.921 0.993333 166.921 1.1C166.934 1.19333 166.894 1.3 166.801 1.42L161.601 8.44L161.801 7.66V14.66C161.801 14.9667 161.661 15.12 161.381 15.12ZM172.856 15.16C172.19 15.16 171.556 15.1 170.956 14.98C170.356 14.86 169.796 14.6867 169.276 14.46C168.77 14.2333 168.31 13.9533 167.896 13.62C167.803 13.54 167.736 13.4533 167.696 13.36C167.67 13.2667 167.67 13.18 167.696 13.1C167.736 13.0067 167.79 12.9333 167.856 12.88C167.923 12.8267 168.003 12.8 168.096 12.8C168.19 12.8 168.283 12.84 168.376 12.92C169.003 13.4133 169.663 13.7733 170.356 14C171.063 14.2267 171.896 14.34 172.856 14.34C174.19 14.34 175.19 14.0733 175.856 13.54C176.536 13.0067 176.876 12.3 176.876 11.42C176.876 10.7 176.63 10.14 176.136 9.74C175.643 9.32667 174.836 9.00667 173.716 8.78L171.736 8.38C170.483 8.12667 169.55 7.70667 168.936 7.12C168.323 6.53333 168.016 5.74 168.016 4.74C168.016 4.14 168.13 3.6 168.356 3.12C168.596 2.62667 168.93 2.20667 169.356 1.86C169.783 1.5 170.29 1.22667 170.876 1.04C171.463 0.839999 172.11 0.739999 172.816 0.739999C173.696 0.739999 174.503 0.873332 175.236 1.14C175.97 1.39333 176.636 1.79333 177.236 2.34C177.33 2.42 177.39 2.51333 177.416 2.62C177.443 2.71333 177.436 2.80667 177.396 2.9C177.37 2.98 177.323 3.04667 177.256 3.1C177.203 3.14 177.13 3.16 177.036 3.16C176.943 3.16 176.85 3.11333 176.756 3.02C176.183 2.51333 175.576 2.14667 174.936 1.92C174.296 1.68 173.59 1.56 172.816 1.56C172.03 1.56 171.343 1.69333 170.756 1.96C170.17 2.21333 169.71 2.58 169.376 3.06C169.056 3.54 168.896 4.1 168.896 4.74C168.896 5.51333 169.123 6.12667 169.576 6.58C170.03 7.02 170.763 7.34 171.776 7.54L173.756 7.94C175.116 8.22 176.123 8.63333 176.776 9.18C177.43 9.71333 177.756 10.4533 177.756 11.4C177.756 11.96 177.643 12.4733 177.416 12.94C177.19 13.3933 176.863 13.7867 176.436 14.12C176.023 14.4533 175.51 14.7133 174.896 14.9C174.296 15.0733 173.616 15.16 172.856 15.16ZM184.215 15.12C184.082 15.12 183.975 15.08 183.895 15C183.829 14.92 183.795 14.8133 183.795 14.68V1.68H178.735C178.602 1.68 178.495 1.64667 178.415 1.58C178.335 1.5 178.295 1.4 178.295 1.28C178.295 1.16 178.335 1.06667 178.415 0.999999C178.495 0.933332 178.602 0.899999 178.735 0.899999H189.695C189.842 0.899999 189.949 0.933332 190.015 0.999999C190.095 1.06667 190.135 1.16 190.135 1.28C190.135 1.41333 190.095 1.51333 190.015 1.58C189.949 1.64667 189.842 1.68 189.695 1.68H184.635V14.68C184.635 14.8133 184.602 14.92 184.535 15C184.469 15.08 184.362 15.12 184.215 15.12ZM192.494 15C192.334 15 192.208 14.96 192.114 14.88C192.034 14.7867 191.994 14.66 191.994 14.5V1.4C191.994 1.24 192.034 1.12 192.114 1.04C192.208 0.946666 192.334 0.899999 192.494 0.899999H200.174C200.308 0.899999 200.408 0.933332 200.474 0.999999C200.554 1.06667 200.594 1.16 200.594 1.28C200.594 1.41333 200.554 1.51333 200.474 1.58C200.408 1.64667 200.308 1.68 200.174 1.68H192.834V7.46H199.774C199.908 7.46 200.008 7.49333 200.074 7.56C200.154 7.62667 200.194 7.72 200.194 7.84C200.194 7.97333 200.154 8.07333 200.074 8.14C200.008 8.20667 199.908 8.24 199.774 8.24H192.834V14.22H200.174C200.308 14.22 200.408 14.2533 200.474 14.32C200.554 14.3867 200.594 14.48 200.594 14.6C200.594 14.7333 200.554 14.8333 200.474 14.9C200.408 14.9667 200.308 15 200.174 15H192.494ZM203.84 15.12C203.72 15.12 203.62 15.08 203.54 15C203.474 14.92 203.44 14.8133 203.44 14.68V1.22C203.44 1.07333 203.474 0.966666 203.54 0.899999C203.607 0.819999 203.694 0.779999 203.8 0.779999C203.92 0.779999 204.014 0.806666 204.08 0.86C204.147 0.913333 204.207 0.993333 204.26 1.1L210.22 12.46H209.66L215.58 1.1C215.647 0.993333 215.707 0.913333 215.76 0.86C215.827 0.806666 215.92 0.779999 216.04 0.779999C216.147 0.779999 216.234 0.819999 216.3 0.899999C216.367 0.966666 216.4 1.07333 216.4 1.22V14.68C216.4 14.8133 216.367 14.92 216.3 15C216.234 15.08 216.14 15.12 216.02 15.12C215.887 15.12 215.787 15.08 215.72 15C215.654 14.92 215.62 14.8133 215.62 14.68V1.7H216.1L210.4 12.6C210.347 12.7067 210.287 12.7867 210.22 12.84C210.167 12.8933 210.08 12.92 209.96 12.92C209.84 12.92 209.747 12.8933 209.68 12.84C209.614 12.7733 209.554 12.6933 209.5 12.6L203.72 1.68H204.22V14.68C204.22 14.8133 204.187 14.92 204.12 15C204.054 15.08 203.96 15.12 203.84 15.12ZM224.555 15.16C223.889 15.16 223.255 15.1 222.655 14.98C222.055 14.86 221.495 14.6867 220.975 14.46C220.469 14.2333 220.009 13.9533 219.595 13.62C219.502 13.54 219.435 13.4533 219.395 13.36C219.369 13.2667 219.369 13.18 219.395 13.1C219.435 13.0067 219.489 12.9333 219.555 12.88C219.622 12.8267 219.702 12.8 219.795 12.8C219.889 12.8 219.982 12.84 220.075 12.92C220.702 13.4133 221.362 13.7733 222.055 14C222.762 14.2267 223.595 14.34 224.555 14.34C225.889 14.34 226.889 14.0733 227.555 13.54C228.235 13.0067 228.575 12.3 228.575 11.42C228.575 10.7 228.329 10.14 227.835 9.74C227.342 9.32667 226.535 9.00667 225.415 8.78L223.435 8.38C222.182 8.12667 221.249 7.70667 220.635 7.12C220.022 6.53333 219.715 5.74 219.715 4.74C219.715 4.14 219.829 3.6 220.055 3.12C220.295 2.62667 220.629 2.20667 221.055 1.86C221.482 1.5 221.989 1.22667 222.575 1.04C223.162 0.839999 223.809 0.739999 224.515 0.739999C225.395 0.739999 226.202 0.873332 226.935 1.14C227.669 1.39333 228.335 1.79333 228.935 2.34C229.029 2.42 229.089 2.51333 229.115 2.62C229.142 2.71333 229.135 2.80667 229.095 2.9C229.069 2.98 229.022 3.04667 228.955 3.1C228.902 3.14 228.829 3.16 228.735 3.16C228.642 3.16 228.549 3.11333 228.455 3.02C227.882 2.51333 227.275 2.14667 226.635 1.92C225.995 1.68 225.289 1.56 224.515 1.56C223.729 1.56 223.042 1.69333 222.455 1.96C221.869 2.21333 221.409 2.58 221.075 3.06C220.755 3.54 220.595 4.1 220.595 4.74C220.595 5.51333 220.822 6.12667 221.275 6.58C221.729 7.02 222.462 7.34 223.475 7.54L225.455 7.94C226.815 8.22 227.822 8.63333 228.475 9.18C229.129 9.71333 229.455 10.4533 229.455 11.4C229.455 11.96 229.342 12.4733 229.115 12.94C228.889 13.3933 228.562 13.7867 228.135 14.12C227.722 14.4533 227.209 14.7133 226.595 14.9C225.995 15.0733 225.315 15.16 224.555 15.16Z" fill="#225887"/>
</svg>
